<?xml version="1.0" encoding="UTF-8"?><svg id="a" xmlns="http://www.w3.org/2000/svg" viewBox="0 0 48 48"><defs><style>.b{fill:#0077b6;}</style></defs><path class="b" d="M24.01,42c-2.49,0-4.83-.47-7.02-1.42-2.19-.94-4.1-2.23-5.72-3.85-1.62-1.62-2.9-3.52-3.85-5.71-.95-2.19-1.42-4.53-1.42-7.02s.47-4.83,1.42-7.02c.94-2.19,2.23-4.1,3.85-5.72,1.62-1.62,3.52-2.9,5.71-3.85,2.19-.95,4.53-1.42,7.02-1.42s4.83.47,7.02,1.42c2.19.94,4.1,2.23,5.72,3.85,1.62,1.62,2.9,3.52,3.85,5.71.95,2.19,1.42,4.53,1.42,7.02s-.47,4.83-1.42,7.02c-.94,2.19-2.23,4.1-3.85,5.72s-3.52,2.9-5.71,3.85c-2.19.95-4.53,1.42-7.02,1.42ZM24,40.46c4.59,0,8.49-1.59,11.68-4.78,3.19-3.19,4.79-7.08,4.79-11.67s-1.59-8.49-4.78-11.68c-3.19-3.19-7.08-4.79-11.68-4.79s-8.49,1.59-11.68,4.78c-3.19,3.19-4.79,7.08-4.79,11.68s1.59,8.49,4.78,11.68c3.19,3.19,7.08,4.79,11.68,4.79ZM24.01,34c-2.78,0-5.14-.97-7.09-2.91-1.95-1.94-2.92-4.3-2.92-7.08s.97-5.14,2.91-7.09,4.3-2.92,7.08-2.92,5.14.97,7.09,2.91,2.92,4.3,2.92,7.08-.97,5.14-2.91,7.09-4.3,2.92-7.08,2.92ZM23.99,32.46c2.35,0,4.35-.82,6-2.46,1.65-1.64,2.47-3.64,2.47-5.99s-.82-4.35-2.46-6c-1.64-1.65-3.64-2.47-5.99-2.47s-4.35.82-6,2.46c-1.65,1.64-2.47,3.64-2.47,5.99s.82,4.35,2.46,6c1.64,1.65,3.64,2.47,5.99,2.47ZM24,26c-.54,0-1-.2-1.4-.6-.4-.4-.6-.87-.6-1.4s.2-1,.6-1.4.87-.6,1.4-.6,1,.2,1.4.6c.4.4.6.87.6,1.4s-.2,1-.6,1.4-.87.6-1.4.6Z"/><circle cx="24" cy="24" r="2.1"/></svg>