<svg xmlns="http://www.w3.org/2000/svg" xmlns:xlink="http://www.w3.org/1999/xlink" width="280" zoomAndPan="magnify" viewBox="0 0 210 209.999996" height="280" preserveAspectRatio="xMidYMid meet" version="1.0"><defs><clipPath id="6114ba0d5d"><path d="M 1.875 1.875 L 208.125 1.875 L 208.125 208.125 L 1.875 208.125 Z M 1.875 1.875 " clip-rule="nonzero"/></clipPath></defs><g clip-path="url(#6114ba0d5d)"><path fill="#0077b6" d="M 1.875 105 C 1.875 48.054688 48.054688 1.875 105 1.875 C 161.945312 1.875 208.125 48.054688 208.125 105 C 208.125 161.945312 161.945312 208.125 105 208.125 C 48.054688 208.125 1.875 161.945312 1.875 105 Z M 1.875 105 " fill-opacity="1" fill-rule="nonzero"/></g><path fill="#ffffff" d="M 169.386719 95.980469 L 134.097656 60.691406 C 122.957031 49.550781 105.75 66.882812 116.929688 78.066406 L 131.3125 92.445312 L 50.257812 92.445312 C 34.503906 92.445312 34.339844 116.886719 50.089844 116.886719 L 131.3125 116.886719 L 116.847656 131.351562 C 105.707031 142.492188 123.039062 159.699219 134.222656 148.519531 L 169.511719 113.230469 C 174.207031 108.53125 174.082031 100.675781 169.386719 95.980469 " fill-opacity="1" fill-rule="nonzero"/></svg>