<?xml version="1.0" encoding="UTF-8"?><svg id="a" xmlns="http://www.w3.org/2000/svg" viewBox="0 0 48 48"><defs><style>.b{fill:#ef3e42;}</style></defs><path d="M24.01,42c-2.49,0-4.83-.47-7.02-1.42-2.19-.94-4.1-2.23-5.72-3.85-1.62-1.62-2.9-3.52-3.85-5.71-.95-2.19-1.42-4.53-1.42-7.02s.47-4.83,1.42-7.02c.94-2.19,2.23-4.1,3.85-5.72,1.62-1.62,3.52-2.9,5.71-3.85,2.19-.95,4.53-1.42,7.02-1.42s4.83.47,7.02,1.42c2.19.94,4.1,2.23,5.72,3.85,1.62,1.62,2.9,3.52,3.85,5.71.95,2.19,1.42,4.53,1.42,7.02s-.47,4.83-1.42,7.02c-.94,2.19-2.23,4.1-3.85,5.72s-3.52,2.9-5.71,3.85c-2.19.95-4.53,1.42-7.02,1.42ZM24,40.46c2.08,0,4.07-.37,5.97-1.1,1.9-.73,3.61-1.8,5.13-3.21L11.85,12.9c-1.37,1.56-2.43,3.28-3.18,5.17s-1.13,3.86-1.13,5.94c0,4.59,1.6,8.48,4.79,11.68,3.19,3.19,7.08,4.79,11.68,4.79ZM36.14,35.1c1.36-1.53,2.42-3.24,3.18-5.13.76-1.9,1.14-3.89,1.14-5.97,0-4.59-1.6-8.48-4.79-11.67-3.19-3.19-7.08-4.79-11.68-4.79-2.08,0-4.08.37-5.98,1.11-1.91.74-3.61,1.81-5.12,3.21l23.25,23.25Z"/><rect class="b" x="23.2" y="7.55" width="1.61" height="32.9" transform="translate(-9.94 24) rotate(-45)"/></svg>