<svg xmlns="http://www.w3.org/2000/svg" xmlns:xlink="http://www.w3.org/1999/xlink" width="280" zoomAndPan="magnify" viewBox="0 0 210 209.999996" height="280" preserveAspectRatio="xMidYMid meet" version="1.0"><defs><clipPath id="3ffb6a0ab3"><path d="M 1.875 1.875 L 208.125 1.875 L 208.125 208.125 L 1.875 208.125 Z M 1.875 1.875 " clip-rule="nonzero"/></clipPath></defs><g clip-path="url(#3ffb6a0ab3)"><path fill="#a72b2e" d="M 208.128906 105.003906 C 208.128906 48.046875 161.957031 1.875 105.003906 1.875 C 48.046875 1.875 1.875 48.046875 1.875 105.003906 C 1.875 161.957031 48.046875 208.128906 105.003906 208.128906 C 161.957031 208.128906 208.128906 161.957031 208.128906 105.003906 " fill-opacity="1" fill-rule="nonzero"/></g><path fill="#ffffff" d="M 105.003906 138.101562 C 98.507812 138.101562 93.109375 133.09375 92.625 126.613281 L 86.097656 39.4375 C 85.65625 33.53125 90.332031 28.492188 96.257812 28.492188 L 113.75 28.492188 C 119.675781 28.492188 124.347656 33.53125 123.90625 39.4375 L 117.378906 126.613281 C 116.894531 133.09375 111.496094 138.101562 105.003906 138.101562 " fill-opacity="1" fill-rule="nonzero"/><path fill="#ffffff" d="M 120.984375 165.53125 C 120.984375 156.707031 113.828125 149.550781 105.003906 149.550781 C 96.175781 149.550781 89.023438 156.707031 89.023438 165.53125 C 89.023438 174.359375 96.175781 181.511719 105.003906 181.511719 C 113.828125 181.511719 120.984375 174.359375 120.984375 165.53125 " fill-opacity="1" fill-rule="nonzero"/></svg>