<?xml version="1.0" encoding="UTF-8"?><svg id="a" xmlns="http://www.w3.org/2000/svg" viewBox="0 0 48 48"><defs><style>.b{fill:#ef3e42;}.c{fill:#ad785d;}</style></defs><path d="M24,42.31c-.93,0-1.74-.31-2.43-.93-.69-.62-1.09-1.39-1.19-2.32h7.25c-.1.93-.5,1.7-1.19,2.32-.69.62-1.5.93-2.43.93ZM16.94,35v-1.54h14.12v1.54h-14.12ZM16.96,29.45c-1.84-1.28-3.29-2.83-4.36-4.66-1.07-1.83-1.6-3.89-1.6-6.18,0-3.58,1.27-6.64,3.82-9.18,2.54-2.54,5.61-3.82,9.18-3.82s6.64,1.27,9.18,3.82c2.54,2.54,3.82,5.61,3.82,9.18,0,2.29-.53,4.35-1.59,6.18-1.06,1.83-2.52,3.38-4.36,4.66h-14.09ZM17.48,27.92h13.05c1.55-1.07,2.76-2.41,3.63-4.03.87-1.62,1.3-3.38,1.3-5.27,0-3.17-1.12-5.87-3.35-8.11-2.23-2.23-4.94-3.35-8.11-3.35s-5.87,1.12-8.11,3.35c-2.23,2.23-3.35,4.94-3.35,8.11,0,1.89.43,3.65,1.3,5.27.87,1.62,2.08,2.97,3.64,4.03Z"/><rect class="b" x="16.94" y="33.47" width="14.12" height="1.54"/><path class="c" d="M24,42.31c-.93,0-1.74-.31-2.43-.93-.69-.62-1.09-1.39-1.19-2.32h7.25c-.1.93-.5,1.7-1.19,2.32-.69.62-1.5.93-2.43.93Z"/></svg>