<svg xmlns="http://www.w3.org/2000/svg" xmlns:xlink="http://www.w3.org/1999/xlink" width="280" zoomAndPan="magnify" viewBox="0 0 210 209.999996" height="280" preserveAspectRatio="xMidYMid meet" version="1.0"><defs><clipPath id="bf46e2f076"><path d="M 1.875 1.875 L 208.125 1.875 L 208.125 208.125 L 1.875 208.125 Z M 1.875 1.875 " clip-rule="nonzero"/></clipPath></defs><g clip-path="url(#bf46e2f076)"><path fill="#0077b6" d="M 104.910156 1.8125 C 47.972656 1.8125 1.8125 47.972656 1.8125 104.910156 C 1.8125 161.851562 47.972656 208.007812 104.910156 208.007812 C 161.851562 208.007812 208.007812 161.851562 208.007812 104.910156 C 208.007812 47.972656 161.851562 1.8125 104.910156 1.8125 Z M 129.386719 159.882812 C 124.089844 161.972656 119.859375 163.5625 116.710938 164.65625 C 113.554688 165.753906 109.894531 166.300781 105.714844 166.300781 C 99.304688 166.300781 94.320312 164.730469 90.761719 161.609375 C 87.207031 158.480469 85.425781 154.511719 85.425781 149.695312 C 85.425781 147.828125 85.554688 145.914062 85.824219 143.960938 C 86.09375 142.003906 86.523438 139.800781 87.113281 137.339844 L 93.730469 113.914062 C 94.320312 111.667969 94.820312 109.542969 95.222656 107.535156 C 95.628906 105.535156 95.824219 103.699219 95.824219 102.042969 C 95.824219 99.054688 95.203125 96.960938 93.972656 95.785156 C 92.738281 94.609375 90.386719 94.015625 86.890625 94.015625 C 85.179688 94.015625 83.421875 94.289062 81.628906 94.820312 C 79.828125 95.351562 78.289062 95.867188 77 96.34375 L 78.769531 89.121094 C 83.105469 87.355469 87.25 85.84375 91.214844 84.589844 C 95.175781 83.332031 98.921875 82.699219 102.46875 82.699219 C 108.832031 82.699219 113.746094 84.238281 117.199219 87.316406 C 120.648438 90.398438 122.375 94.390625 122.375 99.3125 C 122.375 100.328125 122.261719 102.121094 122.015625 104.6875 C 121.777344 107.253906 121.335938 109.609375 120.691406 111.75 L 114.101562 135.082031 C 113.558594 136.957031 113.074219 139.101562 112.652344 141.511719 C 112.214844 143.90625 112.007812 145.734375 112.007812 146.964844 C 112.007812 150.0625 112.699219 152.175781 114.082031 153.300781 C 115.476562 154.425781 117.882812 154.984375 121.292969 154.984375 C 122.894531 154.984375 124.71875 154.703125 126.746094 154.140625 C 128.769531 153.582031 130.242188 153.089844 131.15625 152.664062 Z M 128.214844 65.101562 C 125.140625 67.964844 121.441406 69.398438 117.113281 69.398438 C 112.769531 69.398438 109.058594 67.964844 105.953125 65.101562 C 102.851562 62.246094 101.300781 58.773438 101.300781 54.710938 C 101.300781 50.652344 102.851562 47.175781 105.953125 44.285156 C 109.054688 41.398438 112.769531 39.957031 117.113281 39.957031 C 121.441406 39.957031 125.140625 41.402344 128.214844 44.285156 C 131.292969 47.175781 132.824219 50.652344 132.824219 54.710938 C 132.824219 58.773438 131.292969 62.246094 128.214844 65.101562 Z M 128.214844 65.101562 " fill-opacity="1" fill-rule="nonzero"/></g></svg>