<?xml version="1.0" encoding="UTF-8"?><svg id="a" xmlns="http://www.w3.org/2000/svg" viewBox="0 0 48 48"><defs><style>.c{fill:#ef3e42;}</style></defs><g id="b"><path d="M23.3,33h1.54v-11h-1.54v11ZM24,19.3c.3,0,.55-.1.76-.3.21-.2.31-.45.31-.76s-.1-.57-.31-.78c-.21-.2-.46-.31-.76-.31-.33,0-.59.1-.78.31-.19.2-.29.46-.29.78,0,.31.1.57.31.76.21.2.46.3.76.3ZM24.02,42c-2.51,0-4.84-.47-7.01-1.42-2.17-.94-4.07-2.23-5.71-3.87-1.64-1.64-2.93-3.54-3.87-5.71-.95-2.17-1.42-4.51-1.42-7.02s.47-4.82,1.42-7c.94-2.19,2.23-4.09,3.87-5.71,1.64-1.62,3.54-2.9,5.71-3.85,2.17-.95,4.51-1.42,7.02-1.42s4.82.47,7,1.42c2.19.94,4.09,2.23,5.71,3.85,1.62,1.62,2.9,3.52,3.85,5.71.95,2.19,1.42,4.52,1.42,7s-.47,4.84-1.42,7.01c-.94,2.17-2.23,4.07-3.85,5.7-1.62,1.63-3.52,2.92-5.71,3.87-2.19.95-4.52,1.43-7,1.43ZM24.03,40.46c4.56,0,8.44-1.6,11.64-4.8,3.2-3.2,4.8-7.1,4.8-11.68s-1.6-8.44-4.79-11.64c-3.19-3.2-7.08-4.8-11.68-4.8s-8.46,1.6-11.66,4.79c-3.2,3.19-4.8,7.08-4.8,11.68s1.6,8.46,4.8,11.66c3.2,3.2,7.1,4.8,11.68,4.8Z"/><rect class="c" x="23.3" y="22" width="1.54" height="11"/></g></svg>