<svg xmlns="http://www.w3.org/2000/svg" xmlns:xlink="http://www.w3.org/1999/xlink" width="280" zoomAndPan="magnify" viewBox="0 0 210 209.999996" height="280" preserveAspectRatio="xMidYMid meet" version="1.0"><defs><clipPath id="51ca7dc342"><path d="M 1.875 1.875 L 208.125 1.875 L 208.125 208.125 L 1.875 208.125 Z M 1.875 1.875 " clip-rule="nonzero"/></clipPath></defs><g clip-path="url(#51ca7dc342)"><path fill="#40916c" d="M 208.125 105 C 208.125 106.6875 208.082031 108.375 208 110.058594 C 207.917969 111.746094 207.792969 113.429688 207.628906 115.109375 C 207.464844 116.789062 207.257812 118.460938 207.007812 120.132812 C 206.761719 121.800781 206.472656 123.464844 206.144531 125.117188 C 205.8125 126.773438 205.445312 128.421875 205.035156 130.058594 C 204.625 131.695312 204.175781 133.320312 203.683594 134.9375 C 203.195312 136.550781 202.664062 138.152344 202.097656 139.742188 C 201.527344 141.332031 200.921875 142.90625 200.273438 144.464844 C 199.628906 146.023438 198.945312 147.566406 198.222656 149.089844 C 197.503906 150.617188 196.742188 152.125 195.949219 153.613281 C 195.152344 155.101562 194.320312 156.570312 193.453125 158.015625 C 192.585938 159.464844 191.683594 160.890625 190.746094 162.292969 C 189.808594 163.695312 188.835938 165.074219 187.832031 166.429688 C 186.824219 167.785156 185.789062 169.117188 184.714844 170.421875 C 183.644531 171.726562 182.542969 173.003906 181.410156 174.253906 C 180.277344 175.503906 179.113281 176.726562 177.921875 177.921875 C 176.726562 179.113281 175.503906 180.277344 174.253906 181.410156 C 173.003906 182.542969 171.726562 183.644531 170.421875 184.714844 C 169.117188 185.789062 167.785156 186.824219 166.429688 187.832031 C 165.074219 188.835938 163.695312 189.808594 162.292969 190.746094 C 160.890625 191.683594 159.464844 192.585938 158.015625 193.453125 C 156.570312 194.320312 155.101562 195.152344 153.613281 195.949219 C 152.125 196.742188 150.617188 197.503906 149.089844 198.222656 C 147.566406 198.945312 146.023438 199.628906 144.464844 200.273438 C 142.90625 200.921875 141.332031 201.527344 139.742188 202.097656 C 138.152344 202.664062 136.550781 203.195312 134.9375 203.683594 C 133.320312 204.175781 131.695312 204.625 130.058594 205.035156 C 128.421875 205.445312 126.773438 205.8125 125.117188 206.144531 C 123.464844 206.472656 121.800781 206.761719 120.132812 207.007812 C 118.460938 207.257812 116.789062 207.464844 115.109375 207.628906 C 113.429688 207.792969 111.746094 207.917969 110.058594 208 C 108.375 208.082031 106.6875 208.125 105 208.125 C 103.3125 208.125 101.625 208.082031 99.941406 208 C 98.253906 207.917969 96.570312 207.792969 94.890625 207.628906 C 93.210938 207.464844 91.539062 207.257812 89.867188 207.007812 C 88.199219 206.761719 86.535156 206.472656 84.882812 206.144531 C 83.226562 205.8125 81.578125 205.445312 79.941406 205.035156 C 78.304688 204.625 76.679688 204.175781 75.0625 203.683594 C 73.449219 203.195312 71.847656 202.664062 70.257812 202.097656 C 68.667969 201.527344 67.09375 200.921875 65.535156 200.273438 C 63.976562 199.628906 62.433594 198.945312 60.910156 198.222656 C 59.382812 197.503906 57.875 196.742188 56.386719 195.949219 C 54.898438 195.152344 53.429688 194.320312 51.984375 193.453125 C 50.535156 192.585938 49.109375 191.683594 47.707031 190.746094 C 46.304688 189.808594 44.925781 188.835938 43.570312 187.832031 C 42.210938 186.824219 40.882812 185.789062 39.578125 184.714844 C 38.273438 183.644531 36.996094 182.542969 35.746094 181.410156 C 34.496094 180.277344 33.273438 179.113281 32.078125 177.921875 C 30.886719 176.726562 29.722656 175.503906 28.589844 174.253906 C 27.457031 173.003906 26.355469 171.726562 25.285156 170.421875 C 24.210938 169.117188 23.175781 167.785156 22.167969 166.429688 C 21.164062 165.074219 20.191406 163.695312 19.253906 162.292969 C 18.316406 160.890625 17.414062 159.464844 16.546875 158.015625 C 15.679688 156.570312 14.847656 155.101562 14.050781 153.613281 C 13.257812 152.125 12.496094 150.617188 11.777344 149.089844 C 11.054688 147.566406 10.371094 146.023438 9.726562 144.464844 C 9.078125 142.90625 8.472656 141.332031 7.902344 139.742188 C 7.335938 138.152344 6.804688 136.550781 6.316406 134.9375 C 5.824219 133.320312 5.375 131.695312 4.964844 130.058594 C 4.554688 128.421875 4.1875 126.773438 3.855469 125.117188 C 3.527344 123.464844 3.238281 121.800781 2.992188 120.132812 C 2.742188 118.460938 2.535156 116.789062 2.371094 115.109375 C 2.207031 113.429688 2.082031 111.746094 2 110.058594 C 1.917969 108.375 1.875 106.6875 1.875 105 C 1.875 103.3125 1.917969 101.625 2 99.941406 C 2.082031 98.253906 2.207031 96.570312 2.371094 94.890625 C 2.535156 93.210938 2.742188 91.539062 2.992188 89.867188 C 3.238281 88.199219 3.527344 86.535156 3.855469 84.882812 C 4.1875 83.226562 4.554688 81.578125 4.964844 79.941406 C 5.375 78.304688 5.824219 76.679688 6.316406 75.0625 C 6.804688 73.449219 7.335938 71.847656 7.902344 70.257812 C 8.472656 68.667969 9.078125 67.09375 9.726562 65.535156 C 10.371094 63.976562 11.054688 62.433594 11.777344 60.910156 C 12.496094 59.382812 13.257812 57.875 14.050781 56.386719 C 14.847656 54.898438 15.679688 53.429688 16.546875 51.984375 C 17.414062 50.535156 18.316406 49.109375 19.253906 47.707031 C 20.191406 46.304688 21.164062 44.925781 22.167969 43.570312 C 23.175781 42.214844 24.210938 40.882812 25.285156 39.578125 C 26.355469 38.273438 27.457031 36.996094 28.589844 35.746094 C 29.722656 34.496094 30.886719 33.273438 32.078125 32.078125 C 33.273438 30.886719 34.496094 29.722656 35.746094 28.589844 C 36.996094 27.457031 38.273438 26.355469 39.578125 25.285156 C 40.882812 24.210938 42.210938 23.175781 43.570312 22.167969 C 44.925781 21.164062 46.304688 20.191406 47.707031 19.253906 C 49.109375 18.316406 50.535156 17.414062 51.984375 16.546875 C 53.429688 15.679688 54.898438 14.847656 56.386719 14.050781 C 57.875 13.257812 59.382812 12.496094 60.910156 11.777344 C 62.433594 11.054688 63.976562 10.371094 65.535156 9.726562 C 67.09375 9.078125 68.667969 8.472656 70.257812 7.902344 C 71.847656 7.335938 73.449219 6.804688 75.0625 6.316406 C 76.679688 5.824219 78.304688 5.375 79.941406 4.964844 C 81.578125 4.554688 83.226562 4.1875 84.882812 3.855469 C 86.535156 3.527344 88.199219 3.238281 89.867188 2.992188 C 91.539062 2.742188 93.210938 2.535156 94.890625 2.371094 C 96.570312 2.207031 98.253906 2.082031 99.941406 2 C 101.625 1.917969 103.3125 1.875 105 1.875 C 106.6875 1.875 108.375 1.917969 110.058594 2 C 111.746094 2.082031 113.429688 2.207031 115.109375 2.371094 C 116.789062 2.535156 118.460938 2.742188 120.132812 2.992188 C 121.800781 3.238281 123.464844 3.527344 125.117188 3.855469 C 126.773438 4.1875 128.421875 4.554688 130.058594 4.964844 C 131.695312 5.375 133.320312 5.824219 134.9375 6.316406 C 136.550781 6.804688 138.152344 7.335938 139.742188 7.902344 C 141.332031 8.472656 142.90625 9.078125 144.464844 9.726562 C 146.023438 10.371094 147.566406 11.054688 149.089844 11.777344 C 150.617188 12.496094 152.125 13.257812 153.613281 14.050781 C 155.101562 14.847656 156.570312 15.679688 158.015625 16.546875 C 159.464844 17.414062 160.890625 18.316406 162.292969 19.253906 C 163.695312 20.191406 165.074219 21.164062 166.429688 22.167969 C 167.785156 23.175781 169.117188 24.210938 170.421875 25.285156 C 171.726562 26.355469 173.003906 27.457031 174.253906 28.589844 C 175.503906 29.722656 176.726562 30.886719 177.921875 32.078125 C 179.113281 33.273438 180.277344 34.496094 181.410156 35.746094 C 182.542969 36.996094 183.644531 38.273438 184.714844 39.578125 C 185.789062 40.882812 186.824219 42.214844 187.832031 43.570312 C 188.835938 44.925781 189.808594 46.304688 190.746094 47.707031 C 191.683594 49.109375 192.585938 50.535156 193.453125 51.984375 C 194.320312 53.429688 195.152344 54.898438 195.949219 56.386719 C 196.742188 57.875 197.503906 59.382812 198.222656 60.910156 C 198.945312 62.433594 199.628906 63.976562 200.273438 65.535156 C 200.921875 67.09375 201.527344 68.667969 202.097656 70.257812 C 202.664062 71.847656 203.195312 73.449219 203.683594 75.0625 C 204.175781 76.679688 204.625 78.304688 205.035156 79.941406 C 205.445312 81.578125 205.8125 83.226562 206.144531 84.882812 C 206.472656 86.535156 206.761719 88.199219 207.007812 89.867188 C 207.257812 91.539062 207.464844 93.210938 207.628906 94.890625 C 207.792969 96.570312 207.917969 98.253906 208 99.941406 C 208.082031 101.625 208.125 103.3125 208.125 105 Z M 208.125 105 " fill-opacity="1" fill-rule="nonzero"/></g><path fill="#f2f2f2" d="M 161.621094 85.519531 C 167.140625 79.996094 167.136719 71.046875 161.617188 65.527344 C 156.09375 60.007812 147.144531 60.007812 141.625 65.53125 L 92.699219 114.480469 L 68.273438 90.054688 C 62.753906 84.535156 53.804688 84.535156 48.285156 90.054688 C 42.761719 95.578125 42.761719 104.527344 48.285156 110.046875 L 82.707031 144.46875 C 85.359375 147.121094 88.953125 148.609375 92.703125 148.609375 C 96.453125 148.609375 100.050781 147.121094 102.699219 144.46875 Z M 161.621094 85.519531 " fill-opacity="1" fill-rule="nonzero"/></svg>