<?xml version="1.0" encoding="UTF-8"?><svg id="a" xmlns="http://www.w3.org/2000/svg" viewBox="0 0 48 48"><defs><style>.b{fill:#50c2bd;}</style></defs><path class="b" d="M21.05,31.75l12.8-12.8-1.19-1.17-11.62,11.66-5.85-5.85-1.14,1.17,6.98,6.99ZM24.01,42c-2.48,0-4.81-.47-6.99-1.42-2.18-.94-4.09-2.23-5.72-3.87-1.64-1.64-2.93-3.54-3.87-5.72-.95-2.18-1.42-4.51-1.42-6.99s.47-4.83,1.42-7.02c.94-2.19,2.23-4.1,3.87-5.72,1.64-1.62,3.54-2.9,5.72-3.85,2.18-.95,4.51-1.42,6.99-1.42s4.83.47,7.02,1.42c2.19.94,4.1,2.23,5.72,3.85,1.62,1.62,2.9,3.52,3.85,5.71.95,2.19,1.42,4.53,1.42,7.02s-.47,4.81-1.42,6.99c-.94,2.18-2.23,4.09-3.85,5.72-1.62,1.64-3.52,2.93-5.71,3.87-2.19.95-4.53,1.42-7.02,1.42ZM24,40.46c4.58,0,8.47-1.6,11.67-4.8,3.2-3.2,4.8-7.09,4.8-11.66s-1.6-8.47-4.8-11.67c-3.2-3.2-7.09-4.8-11.67-4.8s-8.46,1.6-11.66,4.8c-3.2,3.2-4.8,7.09-4.8,11.67s1.6,8.46,4.8,11.66c3.2,3.2,7.09,4.8,11.66,4.8Z"/><polygon points="21.09 31.75 33.89 18.95 32.71 17.78 21.09 29.43 15.24 23.59 14.11 24.76 21.09 31.75"/></svg>