<svg xmlns="http://www.w3.org/2000/svg" xmlns:xlink="http://www.w3.org/1999/xlink" width="280" zoomAndPan="magnify" viewBox="0 0 210 209.999996" height="280" preserveAspectRatio="xMidYMid meet" version="1.0"><defs><clipPath id="24602dd2b2"><path d="M 17.34375 2 L 192.84375 2 L 192.84375 208.125 L 17.34375 208.125 Z M 17.34375 2 " clip-rule="nonzero"/></clipPath></defs><g clip-path="url(#24602dd2b2)"><path fill="#0077b6" d="M 166.273438 93.695312 C 166.273438 109.480469 160.257812 124.472656 149.335938 135.90625 C 147.785156 137.523438 146.292969 139.042969 144.882812 140.480469 C 137.273438 148.199219 132.328125 153.199219 130.246094 162.765625 L 79.878906 162.765625 C 78.207031 152.996094 73.5625 148.511719 66.160156 141.359375 C 64.667969 139.921875 63.105469 138.398438 61.460938 136.742188 C 49.480469 124.640625 43.191406 108.605469 43.765625 91.582031 C 44.847656 59.484375 71.863281 32.941406 103.984375 32.417969 C 120.679688 32.171875 136.179688 38.394531 147.976562 50.003906 C 159.777344 61.625 166.273438 77.125 166.273438 93.695312 Z M 89.226562 187.820312 L 80.867188 187.820312 C 82.894531 199.304688 92.941406 208.058594 105 208.058594 C 117.058594 208.058594 127.105469 199.304688 129.132812 187.820312 Z M 73.082031 23.238281 C 73.726562 24.8125 75.246094 25.757812 76.851562 25.757812 C 77.371094 25.757812 77.90625 25.664062 78.414062 25.441406 C 80.496094 24.578125 81.484375 22.195312 80.617188 20.113281 L 74.382812 5.007812 C 73.519531 2.925781 71.121094 1.953125 69.050781 2.804688 C 66.96875 3.667969 65.980469 6.050781 66.84375 8.132812 Z M 131.574219 25.441406 C 132.082031 25.648438 132.617188 25.757812 133.136719 25.757812 C 134.738281 25.757812 136.261719 24.8125 136.90625 23.238281 L 143.15625 8.132812 C 144.019531 6.050781 143.03125 3.652344 140.949219 2.804688 C 138.863281 1.941406 136.464844 2.925781 135.617188 5.007812 L 129.367188 20.113281 C 128.503906 22.195312 129.492188 24.578125 131.574219 25.441406 Z M 172.933594 65.542969 C 173.457031 65.542969 173.988281 65.449219 174.496094 65.226562 L 189.585938 58.980469 C 191.667969 58.117188 192.65625 55.71875 191.792969 53.648438 C 190.929688 51.566406 188.53125 50.578125 186.460938 51.441406 L 171.371094 57.691406 C 169.289062 58.554688 168.300781 60.953125 169.167969 63.023438 C 169.808594 64.597656 171.332031 65.542969 172.933594 65.542969 Z M 189.585938 120.210938 L 174.496094 113.964844 C 172.429688 113.097656 170.03125 114.085938 169.167969 116.167969 C 168.300781 118.253906 169.289062 120.652344 171.371094 121.5 L 186.460938 127.75 C 186.96875 127.957031 187.503906 128.066406 188.023438 128.066406 C 189.628906 128.066406 191.148438 127.121094 191.792969 125.542969 C 192.65625 123.472656 191.667969 121.074219 189.585938 120.210938 Z M 35.503906 113.964844 L 20.414062 120.210938 C 18.332031 121.074219 17.34375 123.472656 18.207031 125.542969 C 18.851562 127.121094 20.386719 128.066406 21.976562 128.066406 C 22.496094 128.066406 23.03125 127.96875 23.539062 127.75 L 38.628906 121.5 C 40.710938 120.636719 41.699219 118.238281 40.832031 116.167969 C 39.984375 114.085938 37.585938 113.097656 35.503906 113.964844 Z M 38.628906 57.691406 L 23.539062 51.441406 C 21.457031 50.578125 19.058594 51.566406 18.207031 53.648438 C 17.34375 55.730469 18.332031 58.128906 20.414062 58.980469 L 35.503906 65.226562 C 36.007812 65.433594 36.542969 65.542969 37.066406 65.542969 C 38.667969 65.542969 40.191406 64.597656 40.832031 63.023438 C 41.710938 60.9375 40.710938 58.554688 38.628906 57.691406 Z M 88.664062 171.113281 L 80.496094 171.113281 L 80.496094 179.472656 L 129.503906 179.472656 L 129.503906 171.113281 Z M 88.664062 171.113281 " fill-opacity="1" fill-rule="nonzero"/></g></svg>