<svg xmlns="http://www.w3.org/2000/svg" xmlns:xlink="http://www.w3.org/1999/xlink" width="280" zoomAndPan="magnify" viewBox="0 0 210 209.999996" height="280" preserveAspectRatio="xMidYMid meet" version="1.0"><defs><clipPath id="e61ff495e0"><path d="M 15 26.410156 L 195 26.410156 L 195 183.910156 L 15 183.910156 Z M 15 26.410156 " clip-rule="nonzero"/></clipPath><clipPath id="937461c8ba"><path d="M 184 110 L 208.125 110 L 208.125 121 L 184 121 Z M 184 110 " clip-rule="nonzero"/></clipPath><clipPath id="a644a9bc32"><path d="M 1.875 110 L 26 110 L 26 121 L 1.875 121 Z M 1.875 110 " clip-rule="nonzero"/></clipPath></defs><g clip-path="url(#e61ff495e0)"><path fill="#fbbe09" d="M 192.777344 168.871094 L 113.425781 31.414062 L 113.417969 31.414062 C 112.496094 29.832031 111.296875 28.605469 109.90625 27.808594 C 108.507812 27 106.847656 26.574219 105.011719 26.574219 C 103.175781 26.574219 101.503906 27 100.113281 27.808594 C 98.714844 28.605469 97.511719 29.832031 96.605469 31.414062 L 96.59375 31.414062 L 17.230469 168.871094 L 17.230469 168.894531 C 16.335938 170.433594 15.898438 172.085938 15.898438 173.734375 C 15.898438 175.375 16.335938 177.023438 17.230469 178.578125 L 17.230469 178.597656 C 18.140625 180.160156 19.339844 181.375 20.742188 182.183594 L 20.761719 182.183594 C 22.160156 182.992188 23.8125 183.417969 25.636719 183.417969 L 184.375 183.417969 C 186.199219 183.417969 187.859375 182.992188 189.25 182.183594 L 189.269531 182.183594 C 190.679688 181.375 191.882812 180.160156 192.777344 178.597656 C 193.675781 177.058594 194.125 175.398438 194.125 173.734375 C 194.125 172.074219 193.675781 170.414062 192.777344 168.871094 Z M 192.777344 168.871094 " fill-opacity="1" fill-rule="nonzero"/></g><path fill="#fefefe" d="M 100.757812 129.621094 C 101.109375 132.332031 102.648438 133.863281 105.011719 133.863281 C 107.480469 133.863281 109.023438 132.332031 109.371094 129.621094 L 113.382812 83.957031 C 113.851562 79.355469 111.492188 76.164062 106.890625 76.164062 L 103.121094 76.164062 C 98.519531 76.164062 96.15625 79.355469 96.628906 83.957031 Z M 96.628906 151.796875 C 96.628906 156.398438 100.289062 159.941406 105.011719 159.941406 C 109.84375 159.941406 113.382812 156.398438 113.382812 151.796875 L 113.382812 150.617188 C 113.382812 146.015625 109.84375 142.484375 105.011719 142.484375 C 100.289062 142.484375 96.628906 146.015625 96.628906 150.617188 Z M 96.628906 151.796875 " fill-opacity="1" fill-rule="nonzero"/><path fill="#fbbe09" d="M 181.238281 101.488281 C 179.007812 102.765625 176.175781 102 174.898438 99.773438 C 173.617188 97.550781 174.382812 94.710938 176.601562 93.433594 L 191.207031 85.003906 C 193.433594 83.726562 196.277344 84.492188 197.542969 86.710938 C 198.824219 88.941406 198.058594 91.78125 195.839844 93.050781 Z M 181.238281 101.488281 " fill-opacity="1" fill-rule="nonzero"/><g clip-path="url(#937461c8ba)"><path fill="#fbbe09" d="M 189.414062 120.296875 C 186.832031 120.296875 184.746094 118.210938 184.746094 115.632812 C 184.746094 113.0625 186.832031 110.964844 189.414062 110.964844 L 203.480469 110.964844 C 206.046875 110.964844 208.148438 113.0625 208.148438 115.632812 C 208.148438 118.210938 206.046875 120.296875 203.480469 120.296875 Z M 189.414062 120.296875 " fill-opacity="1" fill-rule="nonzero"/></g><path fill="#fbbe09" d="M 172.449219 81.59375 C 171.179688 83.824219 168.339844 84.589844 166.109375 83.3125 C 163.890625 82.03125 163.125 79.203125 164.40625 76.972656 L 171.433594 64.796875 C 172.710938 62.566406 175.554688 61.800781 177.773438 63.078125 C 180.003906 64.359375 180.765625 67.199219 179.488281 69.417969 Z M 172.449219 81.59375 " fill-opacity="1" fill-rule="nonzero"/><path fill="#fbbe09" d="M 33.429688 93.433594 C 35.648438 94.722656 36.414062 97.5625 35.125 99.792969 C 33.835938 102.011719 30.992188 102.777344 28.761719 101.488281 L 14.160156 93.050781 C 11.941406 91.769531 11.175781 88.917969 12.464844 86.699219 C 13.757812 84.46875 16.597656 83.714844 18.828125 85.003906 Z M 33.429688 93.433594 " fill-opacity="1" fill-rule="nonzero"/><g clip-path="url(#a644a9bc32)"><path fill="#fbbe09" d="M 20.609375 110.964844 C 23.175781 110.964844 25.265625 113.0625 25.265625 115.632812 C 25.265625 118.210938 23.175781 120.296875 20.609375 120.296875 L 6.542969 120.296875 C 3.960938 120.296875 1.875 118.210938 1.875 115.632812 C 1.875 113.0625 3.960938 110.964844 6.542969 110.964844 Z M 20.609375 110.964844 " fill-opacity="1" fill-rule="nonzero"/></g><path fill="#fbbe09" d="M 45.617188 76.972656 C 46.894531 79.203125 46.121094 82.03125 43.902344 83.3125 C 41.683594 84.589844 38.839844 83.824219 37.5625 81.59375 L 30.535156 69.417969 C 29.253906 67.199219 30.019531 64.359375 32.238281 63.078125 C 34.46875 61.800781 37.300781 62.566406 38.578125 64.796875 Z M 45.617188 76.972656 " fill-opacity="1" fill-rule="nonzero"/></svg>